<?xml version="1.0" encoding="iso-8859-1"?>
<!-- Uploaded to: SVG Repo, www.svgrepo.com, Generator: SVG Repo Mixer Tools -->
<svg height="800px" width="800px" version="1.1" id="Layer_1" xmlns="http://www.w3.org/2000/svg" xmlns:xlink="http://www.w3.org/1999/xlink" 
	 viewBox="0 0 512.002 512.002" xml:space="preserve">
<path style="fill:#AD7E64;" d="M73.597,482.39c0,0,48.933-77.336,248.199-227.279S533.888,58.804,493.543,18.459
	S406.834-9.061,256.89,190.205S29.611,438.406,29.611,438.406L73.597,482.39z"/>
<path id="SVGCleanerId_0" style="fill:#C48F71;" d="M506.099,43.571C465.754,3.226,419.39,16.05,269.445,215.317
	C146.175,379.137,71.991,441.339,49.494,458.289l-19.883-19.884c0,0,77.336-48.933,227.279-248.199S453.198-21.885,493.543,18.459
	c9.537,9.537,16.097,19.415,17.931,30.914C509.811,47.419,508.016,45.488,506.099,43.571z"/>
<g>
	<path id="SVGCleanerId_0_1_" style="fill:#C48F71;" d="M506.099,43.571C465.754,3.226,419.39,16.05,269.445,215.317
		C146.175,379.137,71.991,441.339,49.494,458.289l-19.883-19.884c0,0,77.336-48.933,227.279-248.199S453.198-21.885,493.543,18.459
		c9.537,9.537,16.097,19.415,17.931,30.914C509.811,47.419,508.016,45.488,506.099,43.571z"/>
</g>
<path style="fill:#C89173;" d="M438.407,482.39c0,0-48.933-77.336-248.199-227.279S-21.885,58.804,18.46,18.459
	s86.709-27.52,236.653,171.746s227.279,248.199,227.279,248.199L438.407,482.39z"/>
<path style="fill:#E0A381;" d="M5.905,43.571C46.249,3.226,92.613,16.05,242.558,215.317
	c123.272,163.821,197.455,226.022,219.952,242.972l19.883-19.884c0,0-77.336-48.933-227.279-248.199
	C105.169-9.061,58.805-21.885,18.46,18.459C8.922,27.997,2.363,37.874,0.528,49.374C2.192,47.419,3.987,45.488,5.905,43.571z"/>
<path style="opacity:0.1;enable-background:new    ;" d="M401.542,438.087c27.43,29.4,36.864,44.305,36.864,44.305l43.986-43.986
	c0,0-14.905-9.433-44.305-36.863L401.542,438.087z"/>
<path style="fill:#C89173;" d="M416.413,467.606l51.194-51.194c10.156-10.156,26.622-10.156,36.778,0l0,0
	c10.156,10.156,10.156,26.622,0,36.778l-51.194,51.194c-10.156,10.156-26.622,10.156-36.778,0l0,0
	C406.257,494.228,406.257,477.763,416.413,467.606z"/>
<path style="opacity:0.1;enable-background:new    ;" d="M29.611,438.405l43.986,43.986c0,0,9.433-14.905,36.864-44.305
	l-36.545-36.544C44.515,428.972,29.611,438.405,29.611,438.405z"/>
<path style="fill:#AD7E64;" d="M95.589,467.606l-51.194-51.194c-10.156-10.156-26.622-10.156-36.778,0l0,0
	c-10.156,10.156-10.156,26.622,0,36.778l51.194,51.194c10.156,10.156,26.622,10.156,36.778,0l0,0
	C105.745,494.228,105.745,477.763,95.589,467.606z"/>
</svg>